<!-- stylized raven badge (simple, scalable) -->
<svg xmlns="http://www.w3.org/2000/svg" viewBox="0 0 640 640" fill="none">
  <defs>
    <linearGradient id="g1" x1="0" x2="1">
      <stop offset="0" stop-color="#0f1724"/>
      <stop offset="1" stop-color="#221b28"/>
    </linearGradient>
  </defs>
  <rect width="100%" height="100%" fill="transparent"/>
  <g transform="translate(28,12) scale(0.9)" >
    <path d="M420 120c0 0-24 38-56 46-32 8-74 10-100 34-26 24-50 60-74 72s-64 18-88 10c-24-8-44-24-56-34-12-10-40-36-36-64 4-28 18-40 32-48 14-8 36-8 56-6 20 2 48 6 76 4 28-2 56-12 86-20 30-8 88-26 142-12 54 14 74 36 74 36z" fill="url(#g1)"/>
    <path d="M180 300c20 24 52 46 86 58 34 12 72 18 104 8 32-10 58-36 82-50 24-14 68-36 74-58 6-22-10-30-30-22s-48 30-74 34c-26 4-54-4-80-12s-62-18-94-8c-32 10-58 36-86 58z" fill="#0b0b0b"/>
    <circle cx="510" cy="150" r="6" fill="#e6e6e6" opacity="0.9"/>
  </g>
</svg>
